<?xml version="1.0" standalone="no"?>
<!DOCTYPE svg PUBLIC "-//W3C//DTD SVG 20010904//EN"
 "http://www.w3.org/TR/2001/REC-SVG-20010904/DTD/svg10.dtd">
<svg version="1.0" xmlns="http://www.w3.org/2000/svg"
 width="567.000000pt" height="567.000000pt" viewBox="0 0 567.000000 567.000000"
 preserveAspectRatio="xMidYMid meet">

<g transform="translate(0.000000,567.000000) scale(0.100000,-0.100000)"
fill="#000000" stroke="none">
<path d="M0 2835 l0 -2835 2835 0 2835 0 0 2835 0 2835 -2835 0 -2835 0 0
-2835z m3125 2130 c304 -43 582 -138 823 -282 410 -245 740 -631 905 -1059
167 -435 192 -941 67 -1384 -221 -784 -896 -1395 -1702 -1540 -602 -108 -1223
48 -1718 433 -392 305 -665 723 -775 1192 -112 473 -51 1020 162 1453 316 642
912 1076 1628 1186 123 19 480 20 610 1z"/>
<path d="M2755 4326 c-43 -18 -93 -79 -101 -121 -17 -94 19 -176 96 -215 75
-38 179 -17 229 46 70 88 40 234 -59 284 -45 23 -120 26 -165 6z"/>
<path d="M2160 4193 c-19 -10 -49 -37 -67 -61 -28 -37 -33 -52 -33 -98 0 -71
28 -126 82 -161 59 -40 148 -40 204 -1 50 35 73 74 81 137 7 62 -22 129 -74
168 -46 36 -140 43 -193 16z"/>
<path d="M3345 4194 c-47 -24 -73 -53 -91 -100 -54 -141 72 -281 219 -244 150
38 184 237 56 329 -35 26 -51 31 -98 31 -31 0 -69 -7 -86 -16z"/>
<path d="M1705 3831 c-143 -65 -152 -255 -16 -335 41 -23 125 -25 167 -3 45
23 92 81 100 122 17 92 -20 170 -100 210 -59 30 -97 31 -151 6z"/>
<path d="M3809 3822 c-111 -58 -135 -207 -47 -289 56 -52 135 -65 204 -34 64
29 98 81 102 155 4 84 -23 131 -97 169 -68 34 -95 34 -162 -1z"/>
<path d="M1478 3310 c-88 -27 -141 -97 -140 -185 1 -82 38 -138 114 -170 51
-21 103 -19 153 5 96 47 132 174 75 267 -39 65 -136 104 -202 83z"/>
<path d="M4065 3293 c-101 -53 -135 -177 -74 -268 28 -41 108 -85 154 -85 46
0 126 44 154 85 43 63 38 158 -11 220 -46 59 -157 83 -223 48z"/>
<path d="M1442 2704 c-68 -34 -102 -88 -102 -163 0 -58 15 -93 57 -133 104
-99 282 -39 308 103 14 78 -34 166 -110 200 -55 25 -92 24 -153 -7z"/>
<path d="M4070 2708 c-67 -35 -103 -86 -107 -156 -5 -67 15 -111 70 -155 61
-50 169 -49 228 0 109 92 81 261 -53 318 -51 21 -86 19 -138 -7z"/>
<path d="M1687 2169 c-20 -11 -49 -38 -65 -61 -22 -34 -27 -53 -27 -104 0 -54
4 -67 31 -101 16 -21 50 -48 75 -61 86 -45 195 -8 239 83 43 89 12 194 -74
246 -42 26 -128 25 -179 -2z"/>
<path d="M3801 2173 c-44 -22 -87 -82 -95 -133 -20 -123 93 -237 213 -215 158
28 205 233 75 332 -47 35 -140 43 -193 16z"/>
<path d="M2181 1819 c-82 -33 -125 -101 -119 -190 14 -188 274 -234 350 -61
26 57 21 127 -13 176 -46 68 -149 103 -218 75z"/>
<path d="M3342 1809 c-66 -33 -97 -87 -97 -169 0 -58 4 -72 28 -103 124 -163
380 -44 328 153 -7 25 -26 59 -43 77 -63 65 -139 80 -216 42z"/>
<path d="M2756 1677 c-139 -79 -142 -258 -4 -328 99 -51 223 1 259 108 50 153
-118 298 -255 220z"/>
</g>
</svg>
